# AST/ASF file generated using VICON BodyLanguage
# -----------------------------------------------
:version 1.10
:name VICON
:units
  mass 1.0
  length 0.45
  angle deg
:documentation
   .ast/.asf automatically generated from VICON data using
   VICON BodyBuilder and BodyLanguage model FoxedUp or BRILLIANT.MOD
:root
   order TX TY TZ RX RY RZ
   axis XYZ
   position 0 0 0  
   orientation 0 0 0 
:bonedata
  begin
     id 1 
     name lhipjoint
     direction 0.822369 -0.411937 0.392449 
     length 3.8167 
     axis 0 0 0  XYZ
  end
  begin
     id 2 
     name lfemur
     direction 0.34202 -0.939693 0  
     length 6.16791  
     axis 0 0 20  XYZ
    dof rx ry rz
    limits (-160.0 20.0)
           (-70.0 70.0)
           (-60.0 70.0)
  end
  begin
     id 3 
     name ltibia
     direction 0.34202 -0.939693 0   
     length 7.07101   
     axis 0 0 20   XYZ
    dof rx
    limits (-10.0 170.0)
  end
  begin
     id 4 
     name lfoot
     direction 0.028254 -0.0776273 0.996582   
     length 1.66799   
     axis -90 7.62852e-016 20   XYZ
    dof rx rz
    limits (-45.0 90.0)
           (-70.0 20.0)
  end
  begin
     id 5 
     name ltoes
     direction 1.53483e-011 -4.21688e-011 1   
     length 0.851674   
     axis -90 7.62852e-016 20   XYZ
    dof rx
    limits (-90.0 20.0)
  end
  begin
     id 6 
     name rhipjoint
     direction -0.822466 -0.411836 0.392353   
     length 3.81764  
     axis 0 0 0  XYZ 
  end
  begin
     id 7 
     name rfemur
     direction -0.34202 -0.939693 0   
     length 6.28636   
     axis 0 0 -20   XYZ
    dof rx ry rz
    limits (-160.0 20.0)
           (-70.0 70.0)
           (-70.0 60.0)
  end
  begin
     id 8 
     name rtibia
     direction -0.34202 -0.939693 0   
     length 6.85621   
     axis 0 0 -20   XYZ
    dof rx
    limits (-10.0 170.0)
 end
 begin
     id 9 
     name rfoot
     direction -0.0553036 -0.151945 0.98684   
     length 1.57293  
     axis -90 -7.62852e-016 -20   XYZ
    dof rx rz
    limits (-45.0 90.0)
           (-20.0 70.0)
  end
  begin
     id 10 
     name rtoes
     direction -1.53592e-011 -4.21964e-011 1   
     length 0.802812   
     axis -90 -7.62852e-016 -20   XYZ
    dof rx
    limits (-90.0 20.0)
  end
  begin
     id 11 
     name lowerback
     direction 0.00654913 0.996475 -0.0836396   
     length 1.97212   
     axis 0 0 0   XYZ
    dof rx ry rz
    limits (-20.0 45.0)
           (-30.0 30.0)
           (-30.0 30.0)
  end
  begin
     id 12 
     name upperback
     direction 0.0111875 0.994527 0.103877   
     length 1.89704   
     axis 0 0 0   XYZ
    dof rx ry rz
    limits (-20.0 45.0)
           (-30.0 30.0)
           (-30.0 30.0)
  end
  begin
     id 13 
     name thorax
     direction 0.00473652 0.989004 0.147814   
     length 1.94516   
     axis 0 0 0   XYZ
    dof rx ry rz
    limits (-20.0 45.0)
           (-30.0 30.0)
           (-30.0 30.0)
  end
  begin
     id 14 
     name lowerneck
     direction -0.00925808 0.999011 0.0434791   
     length 1.81771   
     axis 0 0 0   XYZ
    dof rx ry rz
    limits (-20.0 45.0)
           (-30.0 30.0)
           (-30.0 30.0)
  end
  begin
     id 15 
     name upperneck
     direction 0.00451595 0.964412 -0.264365   
     length 1.80434   
     axis 0 0 0   XYZ
    dof rx ry rz
    limits (-20.0 45.0)
           (-30.0 30.0)
           (-30.0 30.0)
  end
  begin
     id 16
     name head
     direction -0.00110849 0.995756 -0.0920241  
     length 1.84006  
     axis 0 0 0   XYZ
    dof rx ry rz
    limits (-20.0 45.0)
           (-30.0 30.0)
           (-30.0 30.0)
  end
  begin
     id 17 
     name lclavicle
     direction 0.921253 0.385213 0.0538957  
     length 3.67415  
     axis 0 0 0   XYZ
    dof ry rz
    limits (-20.0 10.0)
           (0.0 20.0)
  end
  begin
     id 18 
     name lhumerus
     direction 1 -4.48961e-011 6.73441e-028   
     length 4.32712   
     axis 180 -30 -90   XYZ
    dof rx ry rz
    limits (-60.0 90.0)
           (-90.0 90.0)
           (-90.0 90.0)
  end
  begin
     id 19
     name lradius
     direction 1 -4.48985e-011 -9.53507e-028   
     length 3.28587   
     axis 180 -30 -90   XYZ
    dof rx
    limits (-10.0 170.0)
  end
  begin
     id 20
     name lwrist
     direction 1 -4.48951e-011 -4.67472e-027   
     length 1.64293   
     axis 1.65735e-015 90 90   XYZ
    dof ry
    limits (-180.0 0.0)
 end
  begin
     id 21 
     name lhand
     direction 1 -4.48946e-011 -9.34945e-027   
     length 0.433158   
     axis 5.96574e-015 90 90   XYZ
    dof rx rz
    limits (-90.0 90.0)
           (-45.0 45.0)
  end
  begin
     id 22 
     name lfingers
     direction 1 -4.48882e-011 -1.86989e-026   
     length 0.349224   
     axis 1.19315e-014 90 90   XYZ
    dof rx
    limits (0.0 90.0)
  end
  begin
     id 23
     name lthumb
     direction 0.707107 -6.3493e-011 0.707107   
     length 0.501417   
     axis -90 45 2.85299e-015   XYZ
    dof rx rz
    limits (-45.0 45.0)
           (-45.0 45.0)
  end
  begin
     id 24 
     name rclavicle
     direction -0.884378 0.46502 -0.0403866   
     length 3.50218  
     axis 0 0 0   XYZ 
    dof ry rz
    limits (-10.0 20.0)
           (-20.0 0.0)
  end
  begin
     id 25 
     name rhumerus
     direction -1 -4.48964e-011 1.58188e-027  
     length 4.29104   
     axis 180 30 90   XYZ
    dof rx ry rz
    limits (-90.0 60.0)
           (-90.0 90.0)
           (-90.0 90.0)
  end
  begin
     id 26 
     name rradius
     direction -1 -4.48978e-011 -1.9722e-027   
     length 3.2272   
     axis 180 30 90   XYZ
    dof rx
    limits (-10.0 170.0)
  end
  begin
     id 27 
     name rwrist
     direction -1 -4.48969e-011 -4.67472e-027   
     length 1.6136   
     axis 1.65735e-015 -90 -90   XYZ
    dof ry
    limits (-180.0 0.0)
  end
  begin
     id 28
     name rhand
     direction -1 -4.48846e-011 -9.34945e-027   
     length 0.543623   
     axis 5.96574e-015 -90 -90   XYZ
    dof rx rz
    limits (-90.0 90.0)
           (-45.0 45.0)
  end
  begin
     id 29
     name rfingers
     direction -1 -4.49074e-011 -1.86989e-026   
     length 0.438283   
     axis 1.19315e-014 -90 -90   XYZ
    dof rx
    limits (0.0 90.0)
  end
  begin
     id 30
     name rthumb
     direction -0.707107 -6.34834e-011 0.707107   
     length 0.629289   
     axis -90 -45 -2.85299e-015   XYZ
    dof rx rz
    limits (-45.0 45.0)
           (-45.0 45.0)
  end
:hierarchy
  begin
    root lhipjoint rhipjoint lowerback
    lhipjoint lfemur
    lfemur ltibia
    ltibia lfoot
    lfoot ltoes
    rhipjoint rfemur
    rfemur rtibia
    rtibia rfoot
    rfoot rtoes
    lowerback upperback
    upperback thorax
    thorax lowerneck lclavicle rclavicle
    lowerneck upperneck
    upperneck head
    lclavicle lhumerus
    lhumerus lradius
    lradius lwrist
    lwrist lhand lthumb
    lhand lfingers
    rclavicle rhumerus
    rhumerus rradius
    rradius rwrist
    rwrist rhand rthumb
    rhand rfingers
  end

#!OML:ASF H:\GeneralSubjects\Female5\Project 1\Capture day 1\Session 1\Female5.ASF
:FULLY-SPECIFIED
:DEGREES
38
root 2.46019 16.7 1.8337 77.8994 -94.7753 -64.9365
lowerback 6.81171 -1.90042 -2.5643
upperback -10.1694 -3.71392 -2.79682
thorax -15.1488 -1.82995 -0.914574
lowerneck -17.0111 5.27798 9.0328
upperneck 29.7878 6.69253 -7.6863
head 13.48 2.69172 -3.52737
rclavicle 4.23411e-014 4.21423e-014
rhumerus -79.6501 10.4136 -84.0904
rradius 36.2087
rwrist -9.12161
rhand -27.3926 -12.3553
rfingers 7.12502
rthumb -0.799308 -42.3335
lclavicle 4.23411e-014 4.21423e-014
lhumerus -38.2255 -38.8987 94.8493
lradius 115.868
lwrist -0.81295
lhand -40.5245 17.6238
lfingers 7.12502
lthumb -13.4733 47.168
rfemur -35.8796 16.7182 18.2527
rtibia 9.82084
rfoot -17.0226 -16.301
rtoes -44.7136
lfemur 9.57301 0.0697375 -36.7385
ltibia 31.3848
lfoot -6.87308 26.8931
ltoes -40.7553
39
root 1.56162 16.5737 1.80749 81.4835 -95.1956 -69.1515
lowerback 6.8626 -1.87653 -2.18303
upperback -10.0187 -3.66801 -3.17447
thorax -15.0533 -1.8806 -1.55631
lowerneck -17.4703 5.31427 8.8496
upperneck 29.6368 6.86172 -7.92158
head 13.5349 2.71131 -3.54967
rclavicle 1.90336e-014 -3.26007e-014
rhumerus -78.7201 10.597 -84.9991
rradius 36.6313
rwrist -10.1904
rhand -27.3215 -11.907
rfingers 7.12502
rthumb -0.730642 -41.8855
lclavicle 1.90336e-014 -3.26007e-014
lhumerus -41.4671 -38.4997 97.0117
lradius 115.391
lwrist 2.01831
lhand -39.6315 18.3176
lfingers 7.12502
lthumb -12.6125 47.9168
rfemur -33.217 17.5909 18.0231
rtibia 10.7169
rfoot -15.168 -17.65
rtoes -46.7059
lfemur 7.4213 2.63457 -35.7643
ltibia 38.5687
lfoot -9.41435 25.7791
ltoes -40.2139
40
root 0.678157 16.3739 1.77651 82.6222 -95.2525 -71.1936
lowerback 7.43529 -1.72118 -1.64505
upperback -9.87733 -3.39043 -3.2794
thorax -15.2829 -1.80711 -2.01419
lowerneck -17.564 5.18934 8.25104
upperneck 29.051 6.99437 -8.33083
head 13.3117 2.65815 -3.56553
rclavicle -1.57537e-014 -5.64548e-014
rhumerus -77.3488 10.9313 -85.865
rradius 37.5947
rwrist -10.9683
rhand -28.0484 -14.2777
rfingers 7.12502
rthumb -1.43262 -44.2527
lclavicle -1.57537e-014 -5.64548e-014
lhumerus -44.4115 -37.2627 98.9771
lradius 113.835
lwrist 5.99723
lhand -38.2541 19.1551
lfingers 7.12502
lthumb -11.2843 48.8315
rfemur -28.6004 15.9689 19.7933
rtibia 9.45296
rfoot -7.76746 -17.378
rtoes -47.6165
lfemur 5.37194 4.84438 -34.4782
ltibia 46.0201
lfoot -13.0543 24.0622
ltoes -39.2822
41
root -0.164908 16.1193 1.75098 82.4235 -94.9903 -72.1974
lowerback 8.90196 -1.48955 -0.888266
upperback -9.75648 -2.94382 -3.11504
thorax -16.0987 -1.64993 -2.31775
lowerneck -17.1286 4.9631 7.55327
upperneck 27.9516 7.15427 -9.24172
head 12.7921 2.56367 -3.74541
rclavicle -1.0138e-014 -1.55052e-014
rhumerus -75.1771 11.4612 -86.5055
rradius 38.146
rwrist -12.321
rhand -29.7967 -12.165
rfingers 7.12502
rthumb -3.12117 -42.1219
lclavicle -1.0138e-014 -1.55052e-014
lhumerus -47.7112 -34.6829 100.536
lradius 111.419
lwrist 7.66754
lhand -35.5937 22.8964
lfingers 7.12502
lthumb -8.71776 52.6964
rfemur -24.9041 10.9817 22.956
rtibia 10.7521
rfoot -3.44032 -14.3207
rtoes -32.192
lfemur 3.05707 6.38527 -33.2568
ltibia 52.4964
lfoot -17.91 19.7296
ltoes -38.9204
42
root -0.960559 15.8412 1.73683 80.2626 -94.5132 -71.5828
lowerback 11.2203 -1.19133 0.132168
upperback -9.46922 -2.28715 -2.77127
thorax -17.257 -1.4107 -2.628
lowerneck -16.7341 4.61079 6.56843
upperneck 26.7449 7.19073 -10.2382
head 12.2349 2.38564 -3.91818
rclavicle -1.3418e-015 -3.89618e-014
rhumerus -71.7948 12.1384 -86.8096
rradius 39.0789
rwrist -12.7187
rhand -30.8907 -13.3529
rfingers 7.12502
rthumb -4.17756 -43.2917
lclavicle -1.3418e-015 -3.89618e-014
lhumerus -50.1291 -31.7314 101.381
lradius 107.326
lwrist 7.01841
lhand -35.2968 23.0404
lfingers 7.12502
lthumb -8.43123 52.8521
rfemur -23.9311 9.78631 24.8804
rtibia 17.5352
rfoot -8.91312 -8.59951
rtoes -10.0776
lfemur 0.651927 7.27624 -32.1752
ltibia 58.854
lfoot -22.3617 16.3736
ltoes -38.1409
43
root -1.71908 15.6046 1.73155 0.668504 -91.7529 7.47437
lowerback 12.933 -0.856286 5.12424
upperback -9.31889 -0.490377 -1.30756
thorax -18.1757 -1.06926 -4.25014
lowerneck -16.8827 4.15176 5.0944
upperneck 25.6963 7.04679 -10.7759
head 11.8106 2.13179 -3.85182
rclavicle 1.83876e-014 -1.59028e-014
rhumerus -67.5337 12.8069 -86.2755
rradius 40.4446
rwrist -11.0932
rhand -29.4499 -17.6806
rfingers 7.12502
rthumb -2.78625 -47.6421
lclavicle 1.83876e-014 -1.59028e-014
lhumerus -52.0762 -28.1562 100.955
lradius 103.203
lwrist 1.72576
lhand -30.5394 24.6644
lfingers 7.12502
lthumb -3.83836 54.6095
rfemur -22.8131 10.1529 30.9993
rtibia 22.6235
rfoot -12.1234 -7.00215
rtoes -10.0569
lfemur -4.91518 7.53523 -27.278
ltibia 65.007
lfoot -26.6256 10.9889
ltoes -39.8139
